<svg width="500" height="244" viewBox="0 0 500 244" fill="none" xmlns="http://www.w3.org/2000/svg">
<path d="M0 45.849L109.695 188.706H178.571L250 90.491L319.822 188.706H383.597L500 45.849H428.571L357.143 144.063L285.714 45.849H214.286L142.857 144.063L71.428 45.849H0Z" fill="#006399"/>
<path d="M202.381 188.706H297.619L249.559 116.615L202.381 188.706Z" fill="#006399"/>
<path d="M309.524 45.849H404.762L357.143 117.277L309.524 45.849Z" fill="#006399"/>
<path d="M95.238 45.849H190.476L142.857 117.277L95.238 45.849Z" fill="#006399"/>
<path d="M26.577 29.392H20.547L16.215 16.396L11.883 29.392H5.854L0 0.00100708H7.08301L9.83401 16.625L14.459 2.664H18.03L22.596 16.395L25.406 0H32.489L26.577 29.392Z" fill="#006399"/>
<path d="M35.4141 29.392V0.00100708H58.7711V5.099H42.2631V12.033H53.4441V17.36H42.2631V24.294H58.7711V29.392H35.4141Z" fill="#006399"/>
<path d="M78.0269 17.36V29.392H71.295L71.2369 17.36L60.5239 0.00100708H68.4269L74.6909 11.62L80.7209 0.00100708H88.4479L78.0269 17.36Z" fill="#006399"/>
<path d="M91.37 29.392V0.00100708H98.161V24.294H113.206V29.392H91.37Z" fill="#006399"/>
<path d="M135.507 29.392L132.873 22.182H123.507L121.165 29.392H114.375L125.087 0.00100708H131.292L142.063 29.392H135.507ZM128.189 8.543L125.262 17.36H131.057L128.189 8.543Z" fill="#006399"/>
<path d="M162.373 29.392L151.661 12.722L151.719 29.392H144.988V0.00100708H150.9L161.613 16.672V0.00100708H168.287V29.392H162.373Z" fill="#006399"/>
<path d="M192.81 29.392H174.136V0.00100708H192.81L197.493 3.67499V25.718L192.81 29.392ZM190.703 5.099H180.986V24.294H190.703V5.099Z" fill="#006399"/>
<path d="M202.758 18.509V13.641H220.32V18.509H202.758Z" fill="#006399"/>
<path d="M240.163 17.36V29.392H233.43L233.372 17.36L222.659 0.00100708H230.562L236.826 11.62L242.855 0.00100708H250.582L240.163 17.36Z" fill="#006399"/>
<path d="M272.122 29.392H258.189L253.506 25.718V0.00100708H260.297V24.294H270.014V0.00100708H276.805V25.718L272.122 29.392Z" fill="#006399"/>
<path d="M306.539 5.099H296.823V29.392H290.033V5.099L280.315 5.14499V0.00198364H306.54V5.099H306.539Z" fill="#006399"/>
<path d="M324.451 29.392L321.818 22.182H312.449L310.108 29.392H303.318L314.03 0.00100708H320.236L331.007 29.392H324.451ZM317.134 8.543L314.207 17.36H320.003L317.134 8.543Z" fill="#006399"/>
<path d="M351.317 29.392L340.605 12.722L340.664 29.392H333.932V0.00100708H339.845L350.557 16.672V0.00100708H357.23V29.392H351.317Z" fill="#006399"/>
<path d="M369.871 29.392H363.08V0.00100708H369.871V29.392Z" fill="#006399"/>
<path d="M408.271 29.392H395.04L390.356 25.718V3.67499L395.04 0.00100708H408.271L412.954 3.67499V5.09799H397.148V24.293H412.954V25.717L408.271 29.392Z" fill="#006399"/>
<path d="M435.955 29.392H422.023L417.34 25.718V3.67499L422.023 0.00100708H435.955L440.639 3.67499V25.718L435.955 29.392ZM433.849 5.099H424.131V24.294H433.849V5.099Z" fill="#006399"/>
<path d="M463.407 29.392L457.789 18.049H453.28V29.392H446.49V0.00100708H465.106L469.789 3.67499V14.375L465.106 18.049L470.959 29.392H463.407ZM462.998 5.099H453.28V12.722H462.998V5.099Z" fill="#006399"/>
<path d="M493.376 18.05H481.552V29.393H474.761V0.00198364H493.376L498.06 3.67599V14.376L493.376 18.05ZM491.269 5.099H481.552V12.952H491.269V5.099Z" fill="#006399"/>
<path d="M5.20305 215.596L1.55005 201.4H8.64806V215.596H5.20305ZM13.607 215.596L9.95406 201.4H17.052V215.596H13.607Z" fill="#006399"/>
<path d="M38.867 234.801H22.269V201.4H38.867L43.041 205.575V215.23L40.432 217.838L43.041 220.447V230.626L38.867 234.801ZM36.988 207.192H28.324V214.969H36.988V207.192ZM36.988 220.709H28.324V229.007H36.988V220.709Z" fill="#006399"/>
<path d="M68.51 234.801H67.153L62.456 231.775L59.428 234.801H52.436L48.26 230.627V208.236H54.315V229.007H62.456V208.236H68.51V234.801Z" fill="#006399"/>
<path d="M73.728 205.575V199.311H79.783V205.575H73.728ZM79.783 234.801H73.728V208.236H79.783V234.801Z" fill="#006399"/>
<path d="M91.1081 234.801H85.0011V201.347L89.9071 199.417L91.1081 199.311V234.801Z" fill="#006399"/>
<path d="M116.576 234.801H115.22L110.522 231.775L107.495 234.801H100.501L96.326 230.627V212.413L100.501 208.237H107.495L110.522 211.264V201.241L115.376 199.365H116.576V234.801ZM110.522 214.03H102.381V229.007H110.522V214.03Z" fill="#006399"/>
<path d="M121.795 205.575V199.311H127.85V205.575H121.795ZM127.85 234.801H121.795V208.236H127.85V234.801Z" fill="#006399"/>
<path d="M153.318 234.801H147.263V214.03H139.122V234.801H133.068V208.236H134.425L139.122 211.263L142.15 208.236H149.143L153.318 212.412V234.801Z" fill="#006399"/>
<path d="M178.057 208.237H179.31V238.925L175.134 243.102H162.973L158.798 238.925V237.568H173.255V229.165L170.227 232.193H162.712L158.536 228.018V212.413L162.712 208.237H170.227L173.255 211.264L178.057 208.237ZM173.255 214.03H164.591V226.503H173.255V214.03Z" fill="#006399"/>
<path d="M214.172 234.801H197.575V201.4H214.172L218.347 205.575V215.23L215.737 217.838L218.347 220.447V230.626L214.172 234.801ZM212.293 207.192H203.63V214.969H212.293V207.192ZM212.293 220.709H203.63V229.007H212.293V220.709Z" fill="#006399"/>
<path d="M240.163 234.801H227.741L223.565 230.627V212.413L227.741 208.237H240.163L244.337 212.413V220.345L240.163 224.522H229.62V229.269H244.337V230.628L240.163 234.801ZM238.284 214.03H229.62V218.987H238.284V214.03Z" fill="#006399"/>
<path d="M256.289 214.03V229.007H261.925V234.801H254.411L250.235 230.627V214.03H247.104V212.674L250.235 208.237V201.66L254.985 199.311H256.289V208.237H262.03V214.03H256.289Z" fill="#006399"/>
<path d="M272.417 214.03V229.007H278.054V234.801H270.537L266.363 230.627V214.03H263.23V212.674L266.363 208.237V201.66L271.111 199.311H272.416V208.237H278.157V214.03H272.417Z" fill="#006399"/>
<path d="M298.147 234.801H285.726L281.55 230.627V212.413L285.726 208.237H298.147L302.323 212.413V220.345L298.147 224.522H287.605V229.269H302.323V230.628L298.147 234.801ZM296.268 214.03H287.605V218.987H296.268V214.03Z" fill="#006399"/>
<path d="M324.242 214.03H313.334V234.801H307.333L307.28 208.236H308.636L313.333 211.263L316.36 208.236H321.215L324.241 211.263V214.03H324.242Z" fill="#006399"/>
<path d="M361.505 234.801H356.13L352.268 220.032L348.406 234.801H343.029L337.811 201.4H344.126L346.578 220.293L350.704 204.427H353.887L357.958 220.033L360.462 201.4H366.777L361.505 234.801Z" fill="#006399"/>
<path d="M385.983 234.801H373.562L369.385 230.627V212.413L373.562 208.237H385.983L390.157 212.413V230.628L385.983 234.801ZM384.104 214.03H375.439V229.007H384.104V214.03Z" fill="#006399"/>
<path d="M412.338 214.03H401.43V234.801H395.429L395.376 208.236H396.732L401.43 211.263L404.457 208.236H409.31L412.338 211.263V214.03Z" fill="#006399"/>
<path d="M421.577 234.801H415.468V201.347L420.375 199.417L421.576 199.311V234.801H421.577Z" fill="#006399"/>
<path d="M447.043 234.801H445.687L440.99 231.775L437.963 234.801H430.969L426.794 230.627V212.413L430.969 208.237H437.963L440.99 211.264V201.241L445.843 199.365H447.043V234.801ZM440.989 214.03H432.848V229.007H440.989V214.03Z" fill="#006399"/>
<path d="M467.291 234.801H456.437L452.26 230.627V229.268H465.414V224.26H456.437L452.26 220.084V212.413L456.437 208.237H467.291L471.467 212.413V213.769H458.316V218.518H467.291L471.467 222.695V230.628L467.291 234.801Z" fill="#006399"/>
<path d="M480.131 215.596H476.685V201.4H483.785L480.131 215.596ZM488.532 215.596H485.09V201.4H492.187L488.532 215.596Z" fill="#006399"/>
</svg>
